<!DOCTYPE svg PUBLIC "-//W3C//DTD SVG 1.1//EN" "http://www.w3.org/Graphics/SVG/1.1/DTD/svg11.dtd">
<!-- Uploaded to: SVG Repo, www.svgrepo.com, Transformed by: SVG Repo Mixer Tools -->
<svg fill="#1b2e42" height="800px" width="800px" version="1.1" id="Layer_1" xmlns="http://www.w3.org/2000/svg" xmlns:xlink="http://www.w3.org/1999/xlink" viewBox="0 0 299.739 299.739" xml:space="preserve">
<g id="SVGRepo_bgCarrier" stroke-width="0"/>
<g id="SVGRepo_tracerCarrier" stroke-linecap="round" stroke-linejoin="round"/>
<g id="SVGRepo_iconCarrier"> <g id="XMLID_1331_"> <g> <g> <path d="M102.777,290.386c2.008,5.459,7.254,9.353,13.409,9.353c7.889,0,14.284-6.395,14.284-14.284v-3.831l-24.532,8.078 C104.907,290.04,103.849,290.26,102.777,290.386z"/> <circle cx="133.551" cy="24.67" r="24.67"/> <path d="M68.905,207.751c-1.399-6.079,0.792-12.136,5.299-15.9l-2.176-6.609l-2.255,6.85l-2.348-0.773 c-3.739-1.231-7.799,0.595-9.359,4.209l-28.599,66.274c-1.769,4.1,0.363,8.838,4.603,10.234l29.275,9.639 c4.241,1.396,8.77-1.149,9.783-5.498l5.855-25.144l-10.068-43.241C68.91,207.778,68.909,207.765,68.905,207.751z"/> <path d="M268.986,239.337l-47.859-54.033c-2.61-2.946-7.038-3.414-10.205-1.077l-1.99,1.468l-4.282-5.804l-0.004,6.958 c5.457,2.169,9.43,7.24,9.998,13.452c0.001,0.014,0.004,0.028,0.005,0.042l3.934,44.223l13.411,22.06 c2.319,3.815,7.418,4.819,11.01,2.169l24.803-18.296C271.4,247.846,271.946,242.678,268.986,239.337z"/> <path d="M206.233,201.09c-0.349-3.921-3.632-6.927-7.569-6.93l-2.472-0.001l0.006-10.281c5.007-1.875,8.294-6.963,7.648-12.513 c-0.423-3.631-9.699-83.247-10.123-86.884c-0.475-15.109-12.952-27.279-28.156-27.279c-3.446,0-45.344,0-64.031,0 c-15.454,0-28.092,12.574-28.169,28.029c0,0.029,0,0.059,0,0.088c0.008,3.446,0.203,84.235,0.211,87.451 c0.012,4.721,2.776,8.781,6.763,10.696l4.178,12.689l-2.348,0.773c-3.738,1.231-5.92,5.111-5.027,8.946l16.369,70.301 c1.017,4.365,5.56,6.888,9.783,5.498l29.275-9.639c4.218-1.388,6.383-6.11,4.603-10.234l-28.599-66.274 c-1.56-3.615-5.621-5.44-9.359-4.209l-2.348,0.773l-3.454-10.49c2.439-2.186,3.979-5.353,3.971-8.887 c-0.008-3.295-0.202-84.016-0.211-87.391c0.009-0.782,2.594-1.412,3.375-1.416c0.782-0.004,1.423,0.62,1.44,1.402l-0.093,85.97 h0.006v9.085l0.709,2.153c6.001,0.379,11.315,4.087,13.721,9.662l14.138,32.762v-53.662h6.168v67.955l8.294,19.219 c3.478,8.059-0.167,17.49-8.294,21.059v5.942c0,7.889,6.395,14.284,14.284,14.284c7.414,0,13.508-5.648,14.214-12.877 c-4.926-3.385-7.394-9.073-6.891-14.659l7.35-77.067c0,0-1.087-11.653-1.288-109.407c-0.003-1.31,1.006-2.399,2.311-2.498 s3.119,0.826,3.311,2.122c0,0,0,0.001,0,0.001c0.144,0.971,4.068,35.582,10.269,88.769c0.298,2.56,1.394,4.828,3.001,6.602 l-0.008,13.429c-0.001,0-2.477-0.001-2.477-0.001c-3.934,0-7.219,3.002-7.572,6.921l-6.481,71.89 c-0.024,0.266-0.034,0.531-0.03,0.796c0.061,4.152,3.448,7.488,7.598,7.49l30.821,0.018c0.002,0,0.003,0,0.005,0 c4.46,0,7.968-3.83,7.572-8.276L206.233,201.09z"/> </g> </g> </g> </g>
</svg>