<!DOCTYPE svg PUBLIC "-//W3C//DTD SVG 1.1//EN" "http://www.w3.org/Graphics/SVG/1.1/DTD/svg11.dtd">
<!-- Uploaded to: SVG Repo, www.svgrepo.com, Transformed by: SVG Repo Mixer Tools -->
<svg fill="#1b2e42" version="1.1" id="Layer_1" xmlns="http://www.w3.org/2000/svg" xmlns:xlink="http://www.w3.org/1999/xlink" viewBox="0 0 512 512" xml:space="preserve" width="800px" height="800px">
<g id="SVGRepo_bgCarrier" stroke-width="0"/>
<g id="SVGRepo_tracerCarrier" stroke-linecap="round" stroke-linejoin="round"/>
<g id="SVGRepo_iconCarrier"> <g> <g> <path d="M17.145,0v512h82.026h141.62h30.417h141.62h82.026V0H17.145z M240.792,481.583H129.589v-363.28h111.203V481.583z M382.413,481.583H271.21v-363.28h111.203V481.583z M464.439,481.583H412.83V87.885H271.21h-30.417H99.172v393.697h-51.61V30.417 h416.876V481.583z"/> </g> </g> <g> <g> <rect x="99.171" y="43.943" width="37.697" height="30.417"/> </g> </g> <g> <g> <rect x="58.159" y="261.74" width="30.417" height="60.503"/> </g> </g> <g> <g> <rect x="154.368" y="43.943" width="37.697" height="30.417"/> </g> </g> <g> <g> <rect x="209.555" y="43.943" width="37.697" height="30.417"/> </g> </g> <g> <g> <rect x="264.752" y="43.943" width="37.697" height="30.417"/> </g> </g> <g> <g> <rect x="319.939" y="43.943" width="37.697" height="30.417"/> </g> </g> <g> <g> <rect x="375.136" y="43.943" width="37.697" height="30.417"/> </g> </g> </g>
</svg>